
<svg width="16" height="16" viewBox="0 0 16 16" fill="none" xmlns="http://www.w3.org/2000/svg">
<g clip-path="url(#clip0_828_7906)">
<path d="M0 1.90909V7H7V0H1.90909C1.40277 0 0.917184 0.201136 0.55916 0.55916C0.201136 0.917184 0 1.40277 0 1.90909H0Z" fill="#000034"/>
<path d="M14.0909 0H9V7H16V1.90909C16 1.40277 15.7989 0.917184 15.4408 0.55916C15.0828 0.201136 14.5972 0 14.0909 0V0Z" fill="#000034"/>
<path d="M0 14.0909C0 14.5972 0.201136 15.0828 0.55916 15.4408C0.917184 15.7989 1.40277 16 1.90909 16H7V9H0V14.0909Z" fill="#000034"/>
<path d="M9 16H14.0909C14.5972 16 15.0828 15.7989 15.4408 15.4408C15.7989 15.0828 16 14.5972 16 14.0909V9H9V16Z" fill="#000034"/>
</g>
<defs>
<clipPath id="clip0_828_7906">
<rect width="16" height="16" fill="white"/>
</clipPath>
</defs>
</svg>
