<svg width="152" height="32" viewBox="0 0 152 32" fill="#ffffff" xmlns="http://www.w3.org/2000/svg">
<path fill-rule="evenodd" clip-rule="evenodd" d="M0 31.9999H11.4637C11.6811 23.8984 15.9744 18.5933 22.7061 16.8919C9.20271 15.8488 1.89962 26.2409 0 31.9999Z" fill="#4EFDEA"/>
<path fill-rule="evenodd" clip-rule="evenodd" d="M22.7978 27.725C19.7881 23.4678 22.7145 18.6139 23.6219 17.7984C16.8169 20.1943 15.8954 29.5665 16.4509 31.9589L29.0501 32C25.9583 30.853 24.0347 29.4024 22.8972 27.8658C22.7978 27.725 22.7978 27.725 22.7978 27.725Z" fill="#006BF1"/>
<path fill-rule="evenodd" clip-rule="evenodd" d="M10.7905 0V9.22459C17.3355 11.5432 35.6356 18.1368 23.8965 27.725L23.9958 27.8658C27.6664 26.4017 30.0467 24.4262 31.1429 22.3851C35.5596 14.1592 22.0235 5.39052 10.7905 0Z" fill="#7782F1"/>
<path d="M42 27.828V12.7742H48.8913C50.3834 12.7742 51.6242 13.2688 52.614 14.2581C53.6038 15.233 54.0986 16.4014 54.0986 17.7634C54.0986 18.81 53.7884 19.7419 53.168 20.5591C52.5475 21.3763 51.7424 21.9283 50.7527 22.2151L54.2981 27.828H51.3288L47.9385 22.5376H44.6147V27.828H42ZM48.7806 20.3011C49.5635 20.3011 50.2209 20.0573 50.7527 19.5699C51.2845 19.0681 51.5504 18.4373 51.5504 17.6774C51.5504 16.9462 51.3066 16.3298 50.8191 15.828C50.3317 15.3262 49.6891 15.0753 48.8913 15.0753H44.6147V20.3011H48.7806Z" fill="white"/>
<path d="M57.222 17.957C58.4038 16.81 59.8219 16.2366 61.4764 16.2366C62.9537 16.2366 64.2389 16.7025 65.332 17.6344C66.44 18.552 67.1195 19.7061 67.3706 21.0968C67.4593 21.4409 67.5036 21.7849 67.5036 22.129C67.5036 22.4301 67.4667 22.7312 67.3928 23.0323H57.9532C58.1009 23.8781 58.4998 24.552 59.1498 25.0538C59.8145 25.5556 60.5901 25.8065 61.4764 25.8065C62.8355 25.8065 63.9213 25.3333 64.7338 24.3871L66.9939 24.9677C66.5212 25.8853 65.7604 26.6237 64.7116 27.1828C63.6775 27.7276 62.5991 28 61.4764 28C59.7776 28 58.3447 27.4265 57.1776 26.2796C56.0254 25.1326 55.4493 23.7491 55.4493 22.129C55.4493 20.4946 56.0402 19.1039 57.222 17.957ZM57.9532 21.1398H64.911C64.7633 20.3799 64.3718 19.7419 63.7366 19.2258C63.1162 18.6953 62.3554 18.4301 61.4543 18.4301C60.5532 18.4301 59.785 18.6953 59.1498 19.2258C58.5146 19.7419 58.1157 20.3799 57.9532 21.1398Z" fill="white"/>
<path d="M69.5458 12.7742H72.0941V17.9785C73.0543 16.8315 74.3173 16.2509 75.8832 16.2366C75.898 16.2366 75.9201 16.2366 75.9497 16.2366C77.5599 16.2366 78.9263 16.81 80.049 17.957C81.1717 19.0896 81.7331 20.4803 81.7331 22.129C81.7331 23.7634 81.1791 25.1541 80.0712 26.3011C78.9633 27.4337 77.5673 28 75.8832 28C74.3173 28 73.0543 27.4409 72.0941 26.3226V27.828H69.5458V12.7742ZM73.0469 24.6882C73.7707 25.405 74.6423 25.7634 75.6616 25.7634C76.6809 25.7634 77.5451 25.405 78.2542 24.6882C78.978 23.9713 79.34 23.1183 79.34 22.129C79.34 21.1398 78.978 20.2867 78.2542 19.5699C77.5451 18.8387 76.6809 18.4731 75.6616 18.4731C74.6423 18.4731 73.7634 18.8387 73.0247 19.5699C72.3009 20.2867 71.939 21.1398 71.939 22.129C71.939 23.1183 72.3083 23.9713 73.0469 24.6882Z" fill="white"/>
<path d="M86.3348 16.4301V27.828H83.7866V16.4301H86.3348ZM83.9195 12.4516C84.2445 12.1505 84.636 12 85.0939 12C85.5519 12 85.936 12.1505 86.2462 12.4516C86.5712 12.7384 86.7337 13.1039 86.7337 13.5484C86.7337 13.9928 86.5786 14.3584 86.2683 14.6452C85.9434 14.9462 85.5519 15.0968 85.0939 15.0968C84.636 15.0968 84.2445 14.9534 83.9195 14.6667C83.5945 14.3656 83.432 13.9928 83.432 13.5484C83.432 13.1183 83.5945 12.7527 83.9195 12.4516Z" fill="white"/>
<path d="M88.8909 27.828V12.7742H91.4391V27.828H88.8909Z" fill="white"/>
<path d="M101.671 16.4301V27.828H99.1232V16.4301H101.671ZM99.2561 12.4516C99.5811 12.1505 99.9726 12 100.431 12C100.889 12 101.273 12.1505 101.583 12.4516C101.908 12.7384 102.07 13.1039 102.07 13.5484C102.07 13.9928 101.915 14.3584 101.605 14.6452C101.28 14.9462 100.889 15.0968 100.431 15.0968C99.9726 15.0968 99.5811 14.9534 99.2561 14.6667C98.9311 14.3656 98.7687 13.9928 98.7687 13.5484C98.7687 13.1183 98.9311 12.7527 99.2561 12.4516Z" fill="white"/>
<path d="M105.557 17.957C106.739 16.81 108.164 16.2366 109.834 16.2366C111.503 16.2366 112.921 16.8172 114.088 17.9785C115.27 19.1254 115.861 20.5018 115.861 22.1075C115.861 23.7276 115.27 25.1183 114.088 26.2796C112.906 27.4265 111.488 28 109.834 28C108.164 28 106.739 27.4265 105.557 26.2796C104.375 25.1183 103.784 23.7276 103.784 22.1075C103.784 20.4875 104.375 19.1039 105.557 17.957ZM106.177 22.1075C106.177 23.0968 106.532 23.9498 107.241 24.6667C107.95 25.3835 108.814 25.7419 109.834 25.7419C110.838 25.7419 111.695 25.3835 112.404 24.6667C113.113 23.9498 113.468 23.0968 113.468 22.1075C113.468 21.1183 113.113 20.2724 112.404 19.5699C111.71 18.853 110.853 18.4946 109.834 18.4946C108.814 18.4946 107.95 18.853 107.241 19.5699C106.532 20.2724 106.177 21.1183 106.177 22.1075Z" fill="white"/>
<path d="M117.6 16.4301H120.148V17.9355C121.049 16.8029 122.268 16.2366 123.804 16.2366C125.148 16.2366 126.301 16.6595 127.261 17.5054C128.236 18.3369 128.723 19.448 128.723 20.8387V27.828H126.175V21.5054C126.175 20.6022 125.894 19.8853 125.333 19.3548C124.786 18.81 124.107 18.5376 123.294 18.5376C122.364 18.5376 121.603 18.8674 121.012 19.5269C120.436 20.172 120.148 20.9821 120.148 21.957V27.828H117.6V16.4301Z" fill="white"/>
<path d="M130.464 26.3656C130.464 25.9068 130.626 25.5197 130.951 25.2043C131.291 24.8746 131.697 24.7097 132.17 24.7097C132.642 24.7097 133.041 24.8746 133.366 25.2043C133.691 25.5197 133.854 25.9068 133.854 26.3656C133.854 26.8244 133.691 27.2115 133.366 27.5269C133.041 27.8423 132.642 28 132.17 28C131.697 28 131.291 27.8423 130.951 27.5269C130.626 27.2115 130.464 26.8244 130.464 26.3656Z" fill="white"/>
<path d="M137.595 16.4301V27.828H136.044V16.4301H137.595ZM136 12.5806C136.221 12.3799 136.495 12.2796 136.82 12.2796C137.159 12.2796 137.44 12.3871 137.662 12.6022C137.883 12.8029 137.994 13.0609 137.994 13.3763C137.994 13.6918 137.883 13.957 137.662 14.172C137.44 14.3728 137.159 14.4731 136.82 14.4731C136.495 14.4731 136.221 14.3728 136 14.172C135.778 13.957 135.667 13.6918 135.667 13.3763C135.667 13.0609 135.778 12.7957 136 12.5806Z" fill="white"/>
<path d="M141.718 17.957C142.885 16.81 144.304 16.2366 145.973 16.2366C147.657 16.2366 149.082 16.8172 150.249 17.9785C151.416 19.1254 152 20.5018 152 22.1075C152 23.7276 151.416 25.1111 150.249 26.2581C149.068 27.4194 147.642 28 145.973 28C144.304 28 142.885 27.4265 141.718 26.2796C140.551 25.1326 139.968 23.7419 139.968 22.1075C139.968 20.4875 140.551 19.1039 141.718 17.957ZM142.782 25.2903C143.654 26.1649 144.717 26.6022 145.973 26.6022C147.243 26.6022 148.314 26.1649 149.186 25.2903C150.072 24.4158 150.515 23.3548 150.515 22.1075C150.515 20.8602 150.072 19.8065 149.186 18.9462C148.314 18.0717 147.243 17.6344 145.973 17.6344C144.702 17.6344 143.631 18.0717 142.76 18.9462C141.888 19.8065 141.452 20.8602 141.452 22.1075C141.452 23.3692 141.896 24.4301 142.782 25.2903Z" fill="white"/>
<path d="M93.9604 27.8262V12.7725H96.5087V27.8262H93.9604Z" fill="white"/>
</svg>
